# xmcd CD database file
#
# Track frame offsets:
#	150
#	22797
#	48532
#	81467
#	111537
#	139742
#	163307
#	197547
#	225895
#	251672
#	286040
#
# Disc length: 4187 seconds
#
# Revision: 1
# Processed by: cddbd v1.5.1PL2 Copyright (c) Steve Scherf et al.
# Submitted via: CDex 1.51
#
DISCID=9110590b
DTITLE=Various Artist - Piano-Bass Duets: The Complete Sessions [CD3]
DYEAR=1995
DGENRE=Jazz
TTITLE0=Dave Young, Oscar Peterson/In a Mellow Tone
TTITLE1=Dave Young, Cedar Walton/Joshua
TTITLE2=Dave Young and Flanagan*Tommy/Milestones
TTITLE3=Dave Young, John Hicks/Is That So?
TTITLE4=Dave Young, Mulgrew Miller/Soul Eyes
TTITLE5=Dave Young, Ellis Marsalis/Juicy Lucy
TTITLE6=Dave Young, Cyrus Chestnut/Lament
TTITLE7=Dave Young, Oliver Jones/Count Two
TTITLE8=Dave Young, Kenny Barron/Think of One
TTITLE9=Dave Young, Barry Harris/Don't Blame Me
TTITLE10=Dave Young, Renee Rosnes/Marie Antoinette
EXTD=YEAR: 1995
EXTT0=
EXTT1=
EXTT2=
EXTT3=
EXTT4=
EXTT5=
EXTT6=
EXTT7=
EXTT8=
EXTT9=
EXTT10=
PLAYORDER=
